<?xml version="1.0" encoding="UTF-8" standalone="no"?>
<!-- Created with Inkscape (http://www.inkscape.org/) -->
<svg xmlns:dc="http://purl.org/dc/elements/1.1/" xmlns:cc="http://creativecommons.org/ns#" xmlns:rdf="http://www.w3.org/1999/02/22-rdf-syntax-ns#" xmlns:svg="http://www.w3.org/2000/svg" xmlns="http://www.w3.org/2000/svg" xmlns:sodipodi="http://sodipodi.sourceforge.net/DTD/sodipodi-0.dtd" xmlns:inkscape="http://www.inkscape.org/namespaces/inkscape" version="1.0" width="180" height="185" id="svg2" sodipodi:version="0.32" inkscape:version="0.91 r13725" sodipodi:docname="Symbol_template_class.svg" inkscape:output_extension="org.inkscape.output.svg.inkscape">
  <metadata id="metadata2443">
    <rdf:RDF>
      <cc:Work rdf:about="">
        <dc:format>image/svg+xml</dc:format>
        <dc:type rdf:resource="http://purl.org/dc/dcmitype/StillImage"/>
      </cc:Work>
      <cc:Work rdf:about="">
        <dc:format>image/svg+xml</dc:format>
        <dc:type rdf:resource="http://purl.org/dc/dcmitype/StillImage"/>
      </cc:Work>
    </rdf:RDF>
  </metadata>
  <sodipodi:namedview inkscape:window-height="1001" inkscape:window-width="1920" inkscape:pageshadow="2" inkscape:pageopacity="0.0" guidetolerance="10.0" gridtolerance="10.0" objecttolerance="10.0" borderopacity="1.0" bordercolor="#666666" pagecolor="#ffffff" id="base" showgrid="false" inkscape:zoom="2.4972973" inkscape:cx="-43.744588" inkscape:cy="92.883796" inkscape:window-x="-9" inkscape:window-y="-9" inkscape:current-layer="svg2" inkscape:window-maximized="1"/>
  <defs id="defs8">
    <inkscape:perspective sodipodi:type="inkscape:persp3d" inkscape:vp_x="0 : 92.5 : 1" inkscape:vp_y="0 : 1000 : 0" inkscape:vp_z="180 : 92.5 : 1" inkscape:persp3d-origin="90 : 61.666667 : 1" id="perspective2445"/>
  </defs>
  <path d="M 164.07,82.2 C 170.8,130.13 140.4,174 96.2,180.3 C 51.9,186.5 10.6,152.7 3.93,104.79 C -2.79,56.87 27.6,12.98 71.843612,6.7 C 116.1,0.5 157.4,34.3 164,82.21 L 164.07,82.2 z" id="1" style="fill-opacity:0.2"/>
  <path style="fill:#f2680c;fill-opacity:1" d="M 90.520563,178.46486 C 62.738468,175.84141 37.251639,157.19907 24.282398,130.01496 C 13.359842,107.12081 12.233368,80.397636 21.200342,56.900166 C 23.960286,49.667903 28.89866,40.726869 33.186816,35.198428 C 45.34987,19.517364 60.930914,9.5443462 79.295371,5.6855025 C 85.280101,4.427959 96.66231,3.9532778 103.04339,4.6951158 C 143.03706,9.3446343 175.03913,46.510646 176.68307,90.217532 C 177.34855,107.90824 172.51044,126.31719 163.29472,141.16073 C 147.30703,166.91179 119.44119,181.19584 90.520563,178.46487 L 90.520563,178.46486 z M 108.39196,160.49522 C 118.1349,158.59511 125.9252,155.14723 133.79298,149.25313 C 147.02957,139.33699 156.13386,124.40232 159.65098,106.8355 C 160.45889,102.8003 160.57181,101.06618 160.56369,92.820346 C 160.55512,84.139209 160.4705,83.014449 159.47138,78.302275 C 155.06874,57.538187 143.9305,41.142458 127.14452,30.716479 C 118.44852,25.315288 109.12612,22.310039 98.795128,21.577523 C 60.825812,18.885321 29.454585,52.040772 31.196709,93.020563 C 32.312315,119.26292 46.525428,142.66341 68.416691,154.29961 C 80.725093,160.8421 95.149956,163.07774 108.39196,160.49522 L 108.39196,160.49522 z" id="path2447"/>
  <path style="fill:#fef0e6;fill-opacity:1" d="M 89.119048,160.72586 C 70.221718,157.73195 54.762838,147.69632 43.804488,131.30843 C 38.068918,122.73108 34.652178,114.13795 32.401928,102.63095 C 31.292978,96.960117 31.393838,82.499016 32.583488,76.602814 C 35.665938,61.325322 41.820798,49.584977 52.103038,39.369377 C 73.844968,17.768369 107.30795,15.743708 132.16558,34.525237 C 146.27508,45.185866 155.46377,60.261391 159.27661,79.005411 C 160.49745,85.007076 160.60325,100.10731 159.46602,106.03463 C 154.07023,134.15739 134.81497,154.7641 108.94048,160.10645 C 103.75853,161.17638 93.906048,161.48425 89.119048,160.72585 L 89.119048,160.72586 z " id="path2188"/>
  <path transform="matrix(0.9612617,-0.2756374,0.2756374,0.9612617,0,0)" style="font-size:40px;font-style:normal;font-weight:normal;fill:#f2680c;fill-opacity:1;stroke:none;stroke-width:1px;stroke-linecap:butt;stroke-linejoin:miter;stroke-opacity:1;font-family:Bitstream Vera Sans" d="M 22.107182,123.2272 L 22.107182,112.68033 C 24.245849,112.56317 25.857175,112.2409 26.941166,111.71353 C 28.025142,111.18622 28.962641,110.29999 29.753666,109.05484 C 30.54467,107.80976 31.086662,106.2497 31.379642,104.37466 C 31.614005,102.96845 31.731193,100.52217 31.731205,97.035797 C 31.731193,91.352253 31.994864,87.389855 32.522221,85.14859 C 33.049551,82.907437 34.001698,81.105681 35.378666,79.743317 C 36.755602,78.381075 38.762436,77.304416 41.399174,76.513336 C 43.186259,75.986058 45.998757,75.722386 49.836674,75.722321 L 52.165775,75.722321 L 52.165775,86.22525 C 48.913793,86.225305 46.826392,86.408411 45.903568,86.774567 C 44.980691,87.140832 44.29954,87.697472 43.860111,88.444489 C 43.420634,89.191611 43.200908,90.473348 43.200932,92.289703 C 43.200908,94.135454 43.069072,97.636427 42.805424,102.79263 C 42.658916,105.69306 42.278057,108.04413 41.662846,109.84586 C 41.04759,111.64764 40.263899,113.13446 39.311771,114.3063 C 38.359604,115.47821 36.902086,116.69402 34.939213,117.95377 C 36.667711,118.94988 38.081284,120.11443 39.179935,121.44742 C 40.278547,122.78044 41.120832,124.3991 41.706791,126.30338 C 42.292706,128.20769 42.673565,130.75651 42.849369,133.94986 C 43.054424,138.81314 43.156963,141.91861 43.156986,143.26627 C 43.156963,145.19986 43.391337,146.54751 43.860111,147.30923 C 44.328836,148.07095 45.039285,148.64956 45.991459,149.04507 C 46.94358,149.44057 49.001683,149.63833 52.165775,149.63834 L 52.165775,160.18521 L 49.836674,160.18521 C 45.881569,160.18519 42.849346,159.87025 40.739994,159.24039 C 38.6306,158.61049 36.850817,157.56312 35.400639,156.0983 C 33.950429,154.63344 32.976309,152.82436 32.478275,150.67105 C 31.980216,148.51772 31.731193,145.12661 31.731205,140.49771 C 31.731193,135.10709 31.496818,131.60612 31.02808,129.99478 C 30.383538,127.65105 29.409418,125.9738 28.105717,124.96304 C 26.801998,123.95232 24.802489,123.37371 22.107182,123.2272 L 22.107182,123.2272 z M 111.448,123.2272 C 109.3093,123.34441 107.69797,123.66667 106.61402,124.194 C 105.53001,124.72136 104.59983,125.60759 103.82349,126.85269 C 103.0471,128.09782 102.49778,129.65788 102.17554,131.53287 C 101.94114,132.93913 101.82396,135.37076 101.82398,138.82779 C 101.82396,144.51138 101.56761,148.4811 101.05494,150.73697 C 100.54222,152.99282 99.597396,154.8019 98.220463,156.16422 C 96.843492,157.5265 94.82201,158.60316 92.15601,159.3942 C 90.368889,159.92152 87.556392,160.18519 83.71851,160.18521 L 81.389408,160.18521 L 81.389408,149.63834 C 84.524169,149.63833 86.574948,149.44057 87.541752,149.04507 C 88.50854,148.64956 89.218988,148.07827 89.6731,147.33121 C 90.12719,146.58413 90.361565,145.31704 90.376225,143.52994 C 90.390862,141.74283 90.515374,138.32975 90.74976,133.29068 C 90.896233,130.24382 91.29174,127.80485 91.936283,125.97379 C 92.580801,124.14275 93.437734,122.59001 94.507084,121.31558 C 95.576404,120.04119 96.946031,118.92059 98.615971,117.95377 C 96.447985,116.54754 94.865955,115.17059 93.869877,113.82291 C 92.492911,111.88934 91.555412,109.42841 91.057377,106.44009 C 90.7351,104.38935 90.500725,99.877635 90.354252,92.904938 C 90.324944,90.707723 90.12719,89.24288 89.76099,88.510406 C 89.394769,87.778038 88.73559,87.214074 87.783451,86.818512 C 86.831295,86.423059 84.69995,86.225305 81.389408,86.22525 L 81.389408,75.722321 L 83.71851,75.722321 C 87.67358,75.722386 90.705803,76.030003 92.815189,76.645172 C 94.924549,77.26047 96.697008,78.307833 98.132572,79.787262 C 99.568099,81.266814 100.54222,83.083219 101.05494,85.236481 C 101.56761,87.389855 101.82396,90.780965 101.82398,95.409821 C 101.82396,100.77119 102.04368,104.27216 102.48316,105.91275 C 103.12767,108.25653 104.10911,109.93378 105.42749,110.94449 C 106.74583,111.95526 108.75266,112.53387 111.448,112.68033 L 111.448,123.2272 z " id="text2483"/>
  <path transform="matrix(0.9563048,-0.2923717,0.2923717,0.9563048,0,0)" style="font-size:40px;font-style:normal;font-weight:normal;fill:#f2680c;fill-opacity:1;stroke:none;stroke-width:1px;stroke-linecap:butt;stroke-linejoin:miter;stroke-opacity:1;font-family:Bitstream Vera Sans" d="M 60.441721,139.23111 L 60.441721,105.92641 L 48.547185,105.92641 L 48.547185,99.145153 L 80.402669,99.145153 L 80.402669,105.92641 L 68.535475,105.92641 L 68.535475,139.23111 L 60.441721,139.23111 z " id="text2399"/>
</svg>